{
	"asset":{
		"generator":"Khronos glTF Blender I/O v4.5.47",
		"version":"2.0"
	},
	"scene":0,
	"scenes":[
		{
			"name":"Scene",
			"nodes":[
				0,
				1,
				2
			]
		}
	],
	"nodes":[
		{
			"mesh":0,
			"name":"Plane.004",
			"scale":[
				1.7405675649642944,
				1.716153621673584,
				1.605618953704834
			],
			"translation":[
				0,
				0,
				-0.0522393137216568
			]
		},
		{
			"mesh":1,
			"name":"PT",
			"scale":[
				3.745490312576294,
				3.745490312576294,
				3.745490312576294
			]
		},
		{
			"mesh":2,
			"name":"PT rho axes",
			"rotation":[
				0.7071068286895752,
				0,
				0,
				0.7071067690849304
			],
			"scale":[
				1.4517395496368408,
				1.4517395496368408,
				1.4517395496368408
			],
			"translation":[
				1.3404991626739502,
				0,
				-3.3048579692840576
			]
		}
	],
	"materials":[
		{
			"alphaMode":"BLEND",
			"doubleSided":true,
			"name":"PT",
			"pbrMetallicRoughness":{
				"baseColorTexture":{
					"index":0
				},
				"metallicFactor":0,
				"roughnessFactor":0.5
			}
		},
		{
			"alphaMode":"BLEND",
			"doubleSided":true,
			"name":"PT rho axes",
			"pbrMetallicRoughness":{
				"baseColorTexture":{
					"index":1
				},
				"metallicFactor":0,
				"roughnessFactor":0.5
			}
		}
	],
	"meshes":[
		{
			"name":"Plane.005",
			"primitives":[
				{
					"attributes":{
						"POSITION":0,
						"NORMAL":1,
						"TEXCOORD_0":2
					},
					"indices":3
				}
			]
		},
		{
			"name":"PT",
			"primitives":[
				{
					"attributes":{
						"POSITION":4,
						"NORMAL":5,
						"TEXCOORD_0":6
					},
					"indices":7,
					"material":0
				}
			]
		},
		{
			"name":"PT rho axes",
			"primitives":[
				{
					"attributes":{
						"POSITION":8,
						"NORMAL":9,
						"TEXCOORD_0":10
					},
					"indices":7,
					"material":1
				}
			]
		}
	],
	"textures":[
		{
			"sampler":0,
			"source":0
		},
		{
			"sampler":0,
			"source":1
		}
	],
	"images":[
		{
			"mimeType":"image/png",
			"name":"PT",
			"uri":"PT.png"
		},
		{
			"mimeType":"image/png",
			"name":"PT rho axes",
			"uri":"PT%20rho%20axes.png"
		}
	],
	"accessors":[
		{
			"bufferView":0,
			"componentType":5126,
			"count":696,
			"max":[
				1.945711612701416,
				0.5559383034706116,
				-0.0002422418911010027
			],
			"min":[
				0.21680298447608948,
				0,
				-2.000242233276367
			],
			"type":"VEC3"
		},
		{
			"bufferView":1,
			"componentType":5126,
			"count":696,
			"type":"VEC3"
		},
		{
			"bufferView":2,
			"componentType":5126,
			"count":696,
			"type":"VEC2"
		},
		{
			"bufferView":3,
			"componentType":5123,
			"count":1068,
			"type":"SCALAR"
		},
		{
			"bufferView":4,
			"componentType":5126,
			"count":4,
			"max":[
				1.114392876625061,
				0,
				0.07380339503288269
			],
			"min":[
				-0.12488797307014465,
				0,
				-0.9261966347694397
			],
			"type":"VEC3"
		},
		{
			"bufferView":5,
			"componentType":5126,
			"count":4,
			"type":"VEC3"
		},
		{
			"bufferView":6,
			"componentType":5126,
			"count":4,
			"type":"VEC2"
		},
		{
			"bufferView":7,
			"componentType":5123,
			"count":6,
			"type":"SCALAR"
		},
		{
			"bufferView":8,
			"componentType":5126,
			"count":4,
			"max":[
				1.5519752502441406,
				0,
				0.13566336035728455
			],
			"min":[
				-0.9097812175750732,
				0,
				-0.8643366098403931
			],
			"type":"VEC3"
		},
		{
			"bufferView":9,
			"componentType":5126,
			"count":4,
			"type":"VEC3"
		},
		{
			"bufferView":10,
			"componentType":5126,
			"count":4,
			"type":"VEC2"
		}
	],
	"bufferViews":[
		{
			"buffer":0,
			"byteLength":8352,
			"byteOffset":0,
			"target":34962
		},
		{
			"buffer":0,
			"byteLength":8352,
			"byteOffset":8352,
			"target":34962
		},
		{
			"buffer":0,
			"byteLength":5568,
			"byteOffset":16704,
			"target":34962
		},
		{
			"buffer":0,
			"byteLength":2136,
			"byteOffset":22272,
			"target":34963
		},
		{
			"buffer":0,
			"byteLength":48,
			"byteOffset":24408,
			"target":34962
		},
		{
			"buffer":0,
			"byteLength":48,
			"byteOffset":24456,
			"target":34962
		},
		{
			"buffer":0,
			"byteLength":32,
			"byteOffset":24504,
			"target":34962
		},
		{
			"buffer":0,
			"byteLength":12,
			"byteOffset":24536,
			"target":34963
		},
		{
			"buffer":0,
			"byteLength":48,
			"byteOffset":24548,
			"target":34962
		},
		{
			"buffer":0,
			"byteLength":48,
			"byteOffset":24596,
			"target":34962
		},
		{
			"buffer":0,
			"byteLength":32,
			"byteOffset":24644,
			"target":34962
		}
	],
	"samplers":[
		{
			"magFilter":9729,
			"minFilter":9987,
			"wrapS":33071,
			"wrapT":33071
		}
	],
	"buffers":[
		{
			"byteLength":24676,
			"uri":"PT_rho2.bin"
		}
	]
}
